<?xml version="1.0" encoding="utf-8"?>
<svg fill="none" height="286" viewBox="0 0 343 286" width="343" xmlns="http://www.w3.org/2000/svg"><g filter="url(#a)"><g clip-path="url(#b)"><rect fill="url(#c)" height="286" rx="20" width="343"/><path d="M.198 354.638c2.825-36.754 34.955-64.261 71.768-61.446a66.862 66.862 0 0 1 22.46 5.728c.73-.984 1.464-1.966 2.226-2.922.02-.307.023-.608.045-.915 2.823-36.754 34.953-64.261 71.765-61.446a66.611 66.611 0 0 1 31.937 10.99c8.574-24.938 33.182-41.957 60.743-39.849 17.501 1.34 32.648 10.123 42.567 22.999 12.405-37.778 49.376-63.688 90.858-60.514 34.007 2.603 62.031 24.073 74.61 53.34a66.612 66.612 0 0 1 30.909-4.981c36.812 2.816 64.369 34.893 61.549 71.645-.07.9-.169 1.79-.273 2.68a88.794 88.794 0 0 1 21.877-1.029c48.742 3.73 85.232 46.202 81.498 94.863-3.739 48.662-46.281 85.09-95.028 81.36-1.025-.079-2.038-.201-3.053-.312-11.504 16.586-31.263 26.815-52.867 25.164-15.525-1.187-29.171-8.303-38.907-18.94-28.089 23.439-64.99 36.404-104.375 33.388-26.698-2.042-51.134-11.188-71.656-25.394-13.161 18.359-35.329 29.606-59.521 27.755-22.73-1.738-41.918-14.639-52.619-32.899-12.495 9.297-28.27 14.315-45.028 13.032-33.477-2.563-59.29-29.321-61.576-61.789a67.053 67.053 0 0 1-18.363 1.134C24.934 423.467-2.62 391.392.198 354.638Z" fill="url(#d)"/><path d="M74.266 222.173a91.45 91.45 0 0 0-24.18 9.879c-24.8-39.256-72.804-60.089-120.344-48.226-54.865 13.691-89.825 66.112-83.04 120.815a69.452 69.452 0 0 0-20.505 1.983c-37.236 9.291-59.892 46.99-50.606 84.205 9.286 37.215 46.999 59.849 84.235 50.557a69.328 69.328 0 0 0 22.415-10.056c18.786 18.978 46.81 27.856 74.61 20.919 17.85-4.455 32.71-14.72 43.1-28.263 15.535 7.074 33.473 9.155 51.327 4.699 17.133-4.275 31.523-13.898 41.839-26.637a91.451 91.451 0 0 0 25.369-2.66c48.965-12.218 78.761-61.797 66.549-110.733-12.212-48.937-61.804-78.7-110.769-66.482Z" fill="url(#e)"/><path d="M-.5 33.301 1.79 29l-.066 4.824 4.122-2.793-2.408 4.242 5.01-.644-4.198 2.688L9 38.968l-5.026.519 3.402 3.568-4.703-1.77 1.274 4.669-3.302-3.653L-.5 47l-1.145-4.699-3.302 3.653 1.274-4.669-4.702 1.77 3.401-3.568-5.026-.519 4.75-1.651-4.198-2.688 5.01.644-2.408-4.242 4.123 2.793L-2.79 29l2.29 4.301Z" fill="#fff" opacity=".2"/><path d="m285 17.17 1.688-3.17-.049 3.555 3.037-2.058-1.774 3.125 3.691-.474-3.093 1.98 3.5 1.217-3.703.382 2.506 2.63-3.465-1.305.939 3.44-2.433-2.691-.844 3.462-.844-3.462-2.433 2.691.939-3.44-3.465 1.305 2.507-2.63-3.704-.382 3.5-1.217-3.093-1.98 3.692.474-1.775-3.125 3.038 2.058-.05-3.555L285 17.17Z" fill="#FF820A"/><path d="m306.5 245.301 2.29-4.301-.066 4.824 4.122-2.793-2.408 4.242 5.01-.644-4.198 2.688 4.75 1.651-5.026.519 3.402 3.568-4.703-1.77 1.274 4.669-3.302-3.653L306.5 259l-1.145-4.699-3.302 3.653 1.274-4.669-4.702 1.77 3.401-3.568-5.026-.519 4.75-1.651-4.198-2.688 5.01.644-2.408-4.242 4.123 2.793-.067-4.824 2.29 4.301Z" fill="#fff" opacity=".2"/><path d="M41.5 246.301 43.79 242l-.066 4.824 4.122-2.793-2.408 4.242 5.01-.644-4.198 2.688 4.75 1.651-5.026.519 3.402 3.568-4.703-1.77 1.274 4.669-3.302-3.653L41.5 260l-1.145-4.699-3.302 3.653 1.274-4.669-4.703 1.77 3.402-3.568-5.026-.519 4.75-1.651-4.198-2.688 5.01.644-2.408-4.242 4.122 2.793L39.21 242l2.29 4.301Z" fill="#FF820A"/></g></g><defs><linearGradient gradientUnits="userSpaceOnUse" id="c" x1="-64.803" x2="817.062" y1="-44.627" y2="127.756">
<stop stop-color="#F5EFFF"/> <!-- Lavender 50 -->
<stop offset="1" stop-color="#E5D9F2"/> <!-- Lavender 200 -->
</linearGradient><linearGradient gradientUnits="userSpaceOnUse" id="d" x1="517.5" x2="989.631" y1="291" y2="265.913">
<stop stop-color="#E5D9F2"/> <!-- Lavender 200 -->
<stop offset="1" stop-color="#CDC1FF"/> <!-- Lavender 400 -->
</linearGradient><linearGradient gradientUnits="userSpaceOnUse" id="e" x1="265.988" x2="-10.109" y1="254.622" y2="272.167">
<stop stop-color="#BFDBFE"/> <!-- Blue 200 -->
<stop offset="1" stop-color="#93C5FD"/> <!-- Blue 300 -->
</linearGradient><clipPath id="b"><rect fill="#fff" height="286" rx="20" width="343"/></clipPath></defs></svg>